<?xml version="1.0" standalone="no"?><!DOCTYPE svg PUBLIC "-//W3C//DTD SVG 1.1//EN" "http://www.w3.org/Graphics/SVG/1.1/DTD/svg11.dtd"><svg t="1629808205836" class="icon" viewBox="0 0 1024 1024" version="1.1" xmlns="http://www.w3.org/2000/svg" p-id="889" xmlns:xlink="http://www.w3.org/1999/xlink" width="200" height="200"><defs><style type="text/css"></style></defs><path d="M346.965333 937.002667A124.416 124.416 0 0 1 221.866667 816.384c-13.354667-121.472-35.669333-408.618667-36.096-411.52a33.749333 33.749333 0 0 1 8.149333-23.808 30.208 30.208 0 0 1 22.314667-9.856h591.829333a30.890667 30.890667 0 0 1 22.314667 9.984 31.786667 31.786667 0 0 1 7.722666 23.808c0 2.901333-22.741333 290.517333-35.712 411.52a124.501333 124.501333 0 0 1-128 120.618667C619.306667 938.24 565.290667 938.666667 512 938.666667c-56.277333 0-111.488-0.426667-165.034667-1.664zM158.464 302.549333A31.146667 31.146667 0 0 1 128 271.232v-16.213333a30.890667 30.890667 0 0 1 30.464-31.317334H282.88a54.698667 54.698667 0 0 0 52.949333-43.306666l6.485334-29.098667A84.864 84.864 0 0 1 423.893333 85.333333h176.170667a84.778667 84.778667 0 0 1 81.066667 64l6.954666 31.146667a54.613333 54.613333 0 0 0 52.949334 43.349333h124.416a30.848 30.848 0 0 1 30.549333 31.189334v16.213333a31.146667 31.146667 0 0 1-30.421333 31.317333z" p-id="890" fill="#8a8a8a"></path></svg>